<?xml version="1.0" encoding="UTF-8" standalone="no"?>
<svg
   width="900px"
   height="900px"
   viewBox="0 0 900 900"
   version="1.1"
   xml:space="preserve"
   id="SVGRoot"
   inkscape:version="1.3.2 (091e20e, 2023-11-25, custom)"
   sodipodi:docname="drawing.svg"
   xmlns:inkscape="http://www.inkscape.org/namespaces/inkscape"
   xmlns:sodipodi="http://sodipodi.sourceforge.net/DTD/sodipodi-0.dtd"
   xmlns="http://www.w3.org/2000/svg"
   xmlns:svg="http://www.w3.org/2000/svg"><defs
   id="defs10" />
  <sodipodi:namedview
   pagecolor="#a9a9a9"
   bordercolor="#292929"
   borderopacity="1"
   inkscape:showpageshadow="2"
   inkscape:pageopacity="0.0"
   inkscape:pagecheckerboard="0"
   inkscape:deskcolor="#232323"
   id="namedview1"
   showguides="true"
   inkscape:zoom="0.87444445"
   inkscape:cx="81.7662"
   inkscape:cy="318.48793"
   inkscape:window-width="1920"
   inkscape:window-height="1001"
   inkscape:window-x="-9"
   inkscape:window-y="-9"
   inkscape:window-maximized="1"
   inkscape:current-layer="g4"
   inkscape:export-bgcolor="#ffffff00" />
 <style
   type="text/css"
   id="style1">
g.prefab path {
  vector-effect:non-scaling-stroke;
  -inkscape-stroke:hairline;
  fill: none;
  fill-opacity: 1;
  stroke-opacity: 1;
  stroke: #00349c;
}
 </style>
 
<path
   id="rect17"
   style="fill:#f5efed;fill-opacity:1"
   d="M -19.914602,-13.168039 H 926.9723 V 915.42157 H -19.914602 Z"
   sodipodi:insensitive="true" /><text
   xml:space="preserve"
   style="font-size:96px;fill:#000000"
   x="364.80304"
   y="227.57304"
   id="text11"><tspan
     sodipodi:role="line"
     id="tspan11"
     x="364.80304"
     y="227.57304" /></text><g
   id="g3"
   inkscape:export-filename="logo.png"
   inkscape:export-xdpi="96"
   inkscape:export-ydpi="96"><path
     d="m 108.20321,302.93924 c -11.746672,0 -14.606342,-0.24003 -20.019102,1.06349 -22.62529,5.4487 -36.063829,21.39492 -40.753353,44.03262 -2.798256,13.508 -3.186464,16.4996 -1.991028,30.73936 2.32847,27.73621 16.660143,43.47064 43.213083,49.34853 4.20255,0.93032 9.49887,1.34869 17.40442,1.37484 13.49014,0.0446 36.80033,-2.25901 37.16168,0.20587 0,0 -7.05038,18.91531 13.36518,24.53242 58.29611,16.03955 161.64885,18.95776 225.56512,-0.64356 23.43273,-7.18615 26.34215,-21.17972 26.34215,-21.17972 l 0.32233,-10.42285 0.32234,-6.11428 c 0,0 -4.8847,12.88628 -28.9228,20.01522 -62.10082,18.41716 -160.3393,16.43182 -218.41239,1.79376 -21.42526,-5.40051 -3.41121,-19.93354 -3.41121,-19.93354 0,0 -38.85831,-0.44772 -53.39532,-0.20977 -15.97699,0.26154 -22.450393,-2.07879 -31.490603,-11.75498 -5.69324,-6.09376 -8.189465,-17.13165 -9.7265,-26.37524 -1.437665,-8.64599 -1.081548,-17.68964 0.624528,-26.28669 1.715582,-8.64495 2.913223,-18.49687 9.513333,-24.66987 6.3565,-5.94514 11.45404,-8.6548 19.71055,-10.47782 7.328042,-1.61802 24.115712,-0.4447 31.678422,2.21383 6.88313,2.41963 15.67873,7.33554 21.5572,12.04853 2.51553,2.01679 4.85482,3.67593 5.19878,3.68657 0.34399,0.0106 0.67084,-4.64491 0.72684,-10.34474 l 0.10229,-10.36274 -7.96401,-3.65161 c -4.3797,-2.00825 -11.35082,-4.66866 -15.49186,-5.91102 -6.69823,-2.00953 -9.0339,-2.71661 -21.23005,-2.71661 z"
     style="fill:#9a4e3d;stroke-width:0.783376"
     id="path12"
     sodipodi:nodetypes="sssssscsscccsscssaassssscccsss" /><path
     style="fill:#9a4e3d;fill-opacity:1;stroke-width:0.727497"
     id="path13"
     sodipodi:type="arc"
     sodipodi:cx="212.97598"
     sodipodi:cy="501.53363"
     sodipodi:rx="14.689682"
     sodipodi:ry="14.689682"
     sodipodi:start="0"
     sodipodi:end="6.2519167"
     sodipodi:arc-type="slice"
     d="m 227.66566,501.53363 a 14.689682,14.689682 0 0 1 -14.57485,14.68923 14.689682,14.689682 0 0 1 -14.80271,-14.45958 14.689682,14.689682 0 0 1 14.34342,-14.91529 14.689682,14.689682 0 0 1 15.02696,14.22639 l -14.6825,0.45925 z" /><circle
     style="fill:#763c2f;fill-opacity:1;stroke-width:0.7356"
     id="circle14"
     cx="247.81378"
     cy="502.47736"
     r="12.473954" /></g><text
   xml:space="preserve"
   style="font-style:normal;font-variant:normal;font-weight:normal;font-stretch:normal;font-size:35.236px;font-family:Cairo;-inkscape-font-specification:Cairo;fill:#9a4e3d;fill-opacity:1;stroke-width:0.367041"
   x="279.46423"
   y="512.43427"
   id="text14"><tspan
     sodipodi:role="line"
     id="tspan14"
     x="279.46423"
     y="512.43427"
     style="font-style:normal;font-variant:normal;font-weight:normal;font-stretch:normal;font-family:Cairo;-inkscape-font-specification:Cairo;fill:#9a4e3d;fill-opacity:1;stroke-width:0.367041">فكرتك  ويب</tspan></text><rect
   style="fill:#000000;fill-opacity:0"
   id="rect16"
   width="905.71796"
   height="914.86664"
   x="0"
   y="-3.4307497" /><g
   id="g2"
   transform="translate(-8.4857426,0.8086354)"><text
     xml:space="preserve"
     style="font-style:normal;font-variant:normal;font-weight:normal;font-stretch:normal;font-size:66.9244px;font-family:Cairo;-inkscape-font-specification:Cairo;fill:#9a4e3d;fill-opacity:1;stroke-width:0.697137"
     x="183.07545"
     y="428.94641"
     id="text12"
     transform="scale(1.083774,0.92270159)"><tspan
       sodipodi:role="line"
       id="tspan12"
       x="183.07545"
       y="428.94641"
       style="font-style:normal;font-variant:normal;font-weight:normal;font-stretch:normal;font-family:Cairo;-inkscape-font-specification:Cairo;fill:#9a4e3d;fill-opacity:1;stroke-width:0.697137">سينوفا <tspan
   style="font-size:53.3333px"
   id="tspan1" /></tspan></text><text
     xml:space="preserve"
     style="font-style:normal;font-variant:normal;font-weight:normal;font-stretch:normal;font-size:50.1991px;font-family:Cairo;-inkscape-font-specification:Cairo;fill:#9a4e3d;fill-opacity:1;stroke-width:0.941233"
     x="135.6763"
     y="395.42273"
     id="text2"><tspan
       sodipodi:role="line"
       id="tspan2"
       x="135.6763"
       y="395.42273"
       style="stroke-width:0.941233">تك</tspan></text></g><g
   id="g4"
   transform="translate(-13.746802,-249.86835)"
   inkscape:export-filename="sub.png"
   inkscape:export-xdpi="96"
   inkscape:export-ydpi="96"><path
     d="m 108.20321,302.93924 c -11.746672,0 -14.606342,-0.24003 -20.019102,1.06349 -22.62529,5.4487 -36.063829,21.39492 -40.753353,44.03262 -2.798256,13.508 -3.186464,16.4996 -1.991028,30.73936 2.32847,27.73621 16.660143,43.47064 43.213083,49.34853 4.20255,0.93032 9.49887,1.34869 17.40442,1.37484 13.49014,0.0446 36.80033,-2.25901 37.16168,0.20587 0,0 -7.05038,18.91531 13.36518,24.53242 58.29611,16.03955 161.64885,18.95776 225.56512,-0.64356 23.43273,-7.18615 26.34215,-21.17972 26.34215,-21.17972 l 0.32233,-10.42285 0.32234,-6.11428 c 0,0 -4.8847,12.88628 -28.9228,20.01522 -62.10082,18.41716 -160.3393,16.43182 -218.41239,1.79376 -21.42526,-5.40051 -3.41121,-19.93354 -3.41121,-19.93354 0,0 -38.85831,-0.44772 -53.39532,-0.20977 -15.97699,0.26154 -22.450393,-2.07879 -31.490603,-11.75498 -5.69324,-6.09376 -8.189465,-17.13165 -9.7265,-26.37524 -1.437665,-8.64599 -1.081548,-17.68964 0.624528,-26.28669 1.715582,-8.64495 2.913223,-18.49687 9.513333,-24.66987 6.3565,-5.94514 11.45404,-8.6548 19.71055,-10.47782 7.328042,-1.61802 24.115712,-0.4447 31.678422,2.21383 6.88313,2.41963 15.67873,7.33554 21.5572,12.04853 2.51553,2.01679 4.85482,3.67593 5.19878,3.68657 0.34399,0.0106 0.67084,-4.64491 0.72684,-10.34474 l 0.10229,-10.36274 -7.96401,-3.65161 c -4.3797,-2.00825 -11.35082,-4.66866 -15.49186,-5.91102 -6.69823,-2.00953 -9.0339,-2.71661 -21.23005,-2.71661 z"
     style="fill:#9a4e3d;stroke-width:0.783376"
     id="path3"
     sodipodi:nodetypes="sssssscsscccsscssaassssscccsss"
     inkscape:export-filename="sub.png"
     inkscape:export-xdpi="96"
     inkscape:export-ydpi="96" /><path
     style="fill:#9a4e3d;fill-opacity:1;stroke-width:0.727497"
     id="path4"
     sodipodi:type="arc"
     sodipodi:cx="212.97598"
     sodipodi:cy="501.53363"
     sodipodi:rx="14.689682"
     sodipodi:ry="14.689682"
     sodipodi:start="0"
     sodipodi:end="6.2519167"
     sodipodi:arc-type="slice"
     d="m 227.66566,501.53363 a 14.689682,14.689682 0 0 1 -14.57485,14.68923 14.689682,14.689682 0 0 1 -14.80271,-14.45958 14.689682,14.689682 0 0 1 14.34342,-14.91529 14.689682,14.689682 0 0 1 15.02696,14.22639 l -14.6825,0.45925 z" /><circle
     style="fill:#763c2f;fill-opacity:1;stroke-width:0.7356"
     id="circle4"
     cx="247.81378"
     cy="502.47736"
     r="12.473954" /></g></svg>
