<?xml version="1.0" encoding="UTF-8" standalone="no"?>
<svg
   width="900px"
   height="900px"
   viewBox="0 0 900 900"
   version="1.1"
   xml:space="preserve"
   id="SVGRoot"
   inkscape:version="1.3.2 (091e20e, 2023-11-25, custom)"
   sodipodi:docname="drawing.svg"
   xmlns:inkscape="http://www.inkscape.org/namespaces/inkscape"
   xmlns:sodipodi="http://sodipodi.sourceforge.net/DTD/sodipodi-0.dtd"
   xmlns="http://www.w3.org/2000/svg"
   xmlns:svg="http://www.w3.org/2000/svg"><defs
   id="defs10" />
  <sodipodi:namedview
   pagecolor="#a9a9a9"
   bordercolor="#292929"
   borderopacity="1"
   inkscape:showpageshadow="2"
   inkscape:pageopacity="0.0"
   inkscape:pagecheckerboard="0"
   inkscape:deskcolor="#232323"
   id="namedview1"
   showguides="false"
   inkscape:zoom="1.2366512"
   inkscape:cx="289.49149"
   inkscape:cy="272.10583"
   inkscape:window-width="1920"
   inkscape:window-height="1001"
   inkscape:window-x="-9"
   inkscape:window-y="-9"
   inkscape:window-maximized="1"
   inkscape:current-layer="SVGRoot"><sodipodi:guide
     position="638.01337,502.15136"
     orientation="0,-1"
     id="guide14"
     inkscape:locked="false" /></sodipodi:namedview>
 <style
   type="text/css"
   id="style1">
g.prefab path {
  vector-effect:non-scaling-stroke;
  -inkscape-stroke:hairline;
  fill: none;
  fill-opacity: 1;
  stroke-opacity: 1;
  stroke: #00349c;
}
 </style>
 
<path
   id="rect17"
   style="fill:#f5efed;fill-opacity:1"
   d="M -19.914602,-13.168039 H 926.9723 V 915.42157 H -19.914602 Z"
   sodipodi:insensitive="true" /><text
   xml:space="preserve"
   style="font-size:96px;fill:#000000"
   x="364.80304"
   y="227.57304"
   id="text11"><tspan
     sodipodi:role="line"
     id="tspan11"
     x="364.80304"
     y="227.57304"></tspan></text><path
   d="m 108.775,290.93162 c -11.74011,-0.39254 -14.60634,-0.24003 -20.0191,1.06349 -22.62529,5.4487 -38.25036,20.24319 -44.79653,42.41535 -3.80905,12.90152 -4.76905,28.91154 -2.56282,42.74698 4.38307,27.4865 20.70332,45.08791 47.25626,50.9658 4.20255,0.93032 9.49887,1.34869 17.40442,1.37484 13.49014,0.0446 36.80033,-2.25901 37.16168,0.20587 0,0 -15.05546,30.35114 5.3601,35.96825 58.29611,16.03955 161.64885,18.95776 225.56512,-0.64356 23.43273,-7.18615 34.91902,-32.61555 34.91902,-32.61555 l 0.32233,-10.42285 0.32234,-6.11428 c 0,0 -13.46157,24.32211 -37.49967,31.45105 -62.10082,18.41716 -160.3393,16.43182 -218.41239,1.79376 -21.42526,-5.40051 4.59387,-31.36937 4.59387,-31.36937 0,0 -38.85831,-0.44772 -53.39532,-0.20977 -15.97699,0.26154 -26.49357,-3.69606 -35.53378,-13.37225 -5.69324,-6.09376 -7.4065,-16.63068 -9.7265,-26.37524 -2.16014,-9.0729 -1.52822,-29.31418 1.19632,-38.29431 3.16605,-10.43539 6.9564,-16.8796 13.55651,-23.0526 6.3565,-5.94514 11.45404,-8.6548 19.71055,-10.47782 7.32804,-1.61802 24.11571,-0.4447 31.67842,2.21383 6.88313,2.41963 15.67873,7.33554 21.5572,12.04853 2.51553,2.01679 4.85482,3.67593 5.19878,3.68657 0.34399,0.0106 0.67084,-4.64491 0.72684,-10.34474 l 0.10229,-10.36274 -7.96401,-3.65161 c -4.3797,-2.00825 -11.35082,-4.66866 -15.49186,-5.91102 -6.69823,-2.00953 -9.04071,-2.30909 -21.23005,-2.71661 z"
   style="fill:#9a4e3d;stroke-width:0.783376"
   id="path12"
   sodipodi:nodetypes="sssssscsscccsscssssssssscccsss" /><text
   xml:space="preserve"
   style="font-size:87.9803px;fill:#9a4e3d;fill-opacity:1;stroke-width:0.916473"
   x="88.055435"
   y="437.97113"
   id="text12"
   transform="scale(1.083774,0.92270159)"><tspan
     sodipodi:role="line"
     id="tspan12"
     x="88.055435"
     y="437.97113"
     style="fill:#9a4e3d;fill-opacity:1;stroke-width:0.916473">سينوفا تك</tspan></text><path
   style="fill:#9a4e3d;fill-opacity:1;stroke-width:0.727497"
   id="path13"
   sodipodi:type="arc"
   sodipodi:cx="216.21053"
   sodipodi:cy="502.34225"
   sodipodi:rx="14.689682"
   sodipodi:ry="14.689682"
   sodipodi:start="0"
   sodipodi:end="6.2519167"
   sodipodi:arc-type="slice"
   d="m 230.90021,502.34225 a 14.689682,14.689682 0 0 1 -14.57485,14.68924 14.689682,14.689682 0 0 1 -14.80272,-14.45958 14.689682,14.689682 0 0 1 14.34342,-14.9153 14.689682,14.689682 0 0 1 15.02697,14.22639 l -14.6825,0.45925 z" /><circle
   style="fill:#763c2f;fill-opacity:1;stroke-width:0.7356"
   id="circle14"
   cx="251.04832"
   cy="503.28598"
   r="12.473954" /><text
   xml:space="preserve"
   style="font-size:35.236px;fill:#9a4e3d;fill-opacity:1;stroke-width:0.367041"
   x="287.5506"
   y="514.86017"
   id="text14"><tspan
     sodipodi:role="line"
     id="tspan14"
     x="287.5506"
     y="514.86017"
     style="fill:#9a4e3d;fill-opacity:1;stroke-width:0.367041">فكرتك  ويب</tspan></text><path
   d="m 101.11678,19.8495 c -8.469771,-0.283192 -10.537571,-0.173168 -14.442551,0.767241 -16.32276,3.930904 -27.59529,14.60422 -32.31794,30.600073 -2.748,9.307653 -3.44058,20.857898 -1.84892,30.839322 3.16211,19.829824 14.93617,32.528154 34.09249,36.768694 3.03187,0.67116 6.85285,0.973 12.55621,0.99186 9.732311,0.0322 26.549181,-1.62974 26.809881,0.14852 0,0 -10.8616,21.89649 3.86698,25.94889 42.05706,11.57154 116.61971,13.67685 162.73137,-0.46429 16.90528,-5.18437 27.77746,-22.35728 27.77746,-22.35728 l 0.23254,-7.51945 0.23255,-4.41107 c 0,0 -12.29722,16.37407 -29.63923,21.51716 -44.80193,13.28685 -115.67496,11.85454 -157.57113,1.29408 -15.457,-3.89613 3.3142,-22.63107 3.3142,-22.63107 0,0 -28.03389,-0.323 -38.521451,-0.15133 -11.52641,0.18868 -19.11348,-2.66648 -25.63544,-9.64726 -4.10732,-4.396282 -5.34333,-11.998012 -7.01707,-19.028114 -1.55841,-6.545541 -1.10251,-21.148382 0.86308,-27.626994 2.2841,-7.528492 5.01861,-12.177598 9.78018,-16.631036 4.58583,-4.289056 8.26339,-6.243905 14.21996,-7.559106 5.28673,-1.167301 17.398001,-0.320825 22.854031,1.597147 4.96575,1.745615 11.31124,5.29214 15.55219,8.692273 1.8148,1.454991 3.50246,2.651959 3.7506,2.659634 0.24817,0.0077 0.48397,-3.35102 0.52437,-7.463098 l 0.0738,-7.476076 -5.74554,-2.634415 c -3.15969,-1.448832 -8.18892,-3.368153 -11.17643,-4.26444 -4.83236,-1.449752 -6.52232,-1.665861 -15.31618,-1.959865 z"
   style="fill:#9a4e3d;stroke-width:0.565158"
   id="path15"
   sodipodi:nodetypes="sssssscsscccsscssssssssscccsss" /><path
   style="fill:#9a4e3d;fill-opacity:1;stroke-width:0.4942"
   id="path16"
   sodipodi:type="arc"
   sodipodi:cx="199.00783"
   sodipodi:cy="171.7505"
   sodipodi:rx="9.9789343"
   sodipodi:ry="9.9789343"
   sodipodi:start="0"
   sodipodi:end="6.2519167"
   sodipodi:arc-type="slice"
   d="m 208.98676,171.7505 a 9.9789343,9.9789343 0 0 1 -9.90093,9.97863 9.9789343,9.9789343 0 0 1 -10.05572,-9.82262 9.9789343,9.9789343 0 0 1 9.74372,-10.1322 9.9789343,9.9789343 0 0 1 10.20805,9.66422 l -9.97405,0.31197 z" /><circle
   style="fill:#763c2f;fill-opacity:1;stroke-width:0.4942"
   id="circle16"
   cx="229.91634"
   cy="170.92284"
   r="8.3804235" /><rect
   style="fill:#000000;fill-opacity:0"
   id="rect16"
   width="905.71796"
   height="914.86664"
   x="0"
   y="-3.4307497" /></svg>
